<svg xmlns="http://www.w3.org/2000/svg" xmlns:xlink="http://www.w3.org/1999/xlink" width="500" zoomAndPan="magnify" viewBox="0 0 375 374.999991" height="500" preserveAspectRatio="xMidYMid meet" version="1.0"><defs><clipPath id="b7110d920f"><path d="M 116.261719 149 L 336 149 L 336 223 L 116.261719 223 Z M 116.261719 149 " clip-rule="nonzero"/></clipPath><clipPath id="9103180636"><path d="M 44.007812 149.039062 L 116.015625 149.039062 L 116.015625 222.84375 L 44.007812 222.84375 Z M 44.007812 149.039062 " clip-rule="nonzero"/></clipPath></defs><g clip-path="url(#b7110d920f)"><path fill="#000000" d="M 49.253906 150.09375 C 47.386719 150.949219 45.207031 153.363281 44.675781 155.160156 C 44.386719 156.140625 44.300781 162.472656 44.386719 176.511719 C 44.507812 196.050781 44.527344 196.515625 45.320312 198.613281 C 47.355469 204.007812 48.808594 205.371094 61.667969 213.9375 C 74.066406 222.199219 74.863281 222.65625 76.835938 222.65625 C 78.550781 222.65625 80.144531 221.839844 86.960938 217.464844 C 100.5625 208.726562 105.453125 204.703125 107.4375 200.609375 C 109.4375 196.476562 109.480469 195.960938 109.507812 174.847656 C 109.535156 153.609375 109.5625 153.945312 107.449219 151.851562 C 105.039062 149.464844 106.855469 149.605469 77.453125 149.507812 C 52.1875 149.425781 50.640625 149.457031 49.253906 150.09375 M 255.25 183.089844 L 255.25 202.148438 L 261.546875 202.148438 L 261.421875 200.539062 L 261.292969 198.933594 L 262.703125 200.210938 C 264.703125 202.015625 266.375 202.632812 269.347656 202.664062 C 274.335938 202.71875 278.328125 200.242188 280.558594 195.714844 C 281.535156 193.726562 281.746094 192.820312 281.898438 189.949219 C 282.109375 185.867188 281.460938 183.144531 279.589844 180.296875 C 275.925781 174.699219 267.539062 173.261719 262.707031 177.398438 L 261.292969 178.613281 L 261.292969 164.246094 L 258.269531 164.140625 L 255.25 164.03125 Z M 287.292969 164.410156 C 286.128906 164.886719 285.265625 166.0625 285.035156 167.484375 C 284.84375 168.644531 284.976562 168.960938 286.109375 170.09375 C 287.820312 171.804688 289.601562 171.882812 291.164062 170.316406 C 293.023438 168.457031 292.535156 165.554688 290.203125 164.582031 C 288.816406 164 288.355469 163.972656 287.292969 164.410156 M 125.976562 183.460938 L 125.976562 202.148438 L 132.191406 202.148438 L 132.386719 174.867188 L 136.960938 185.222656 L 141.539062 195.578125 L 146.164062 195.375 L 155.632812 174.867188 L 155.640625 201.78125 L 161.863281 201.78125 L 161.863281 164.792969 L 157.746094 164.796875 L 153.625 164.796875 L 148.902344 175.96875 C 146.300781 182.117188 144.109375 187.078125 144.03125 187 C 143.953125 186.921875 141.777344 181.933594 139.195312 175.917969 L 134.503906 164.976562 L 130.238281 164.875 L 125.976562 164.773438 Z M 194.273438 183.472656 L 194.273438 202.148438 L 200.710938 202.148438 L 200.605469 194.089844 L 200.5 186.035156 L 217.164062 186.035156 L 217.164062 202.148438 L 223.386719 202.148438 L 223.386719 164.792969 L 217.164062 164.792969 L 217.164062 180.542969 L 200.5 180.542969 L 200.710938 164.792969 L 194.273438 164.792969 Z M 58.398438 169.28125 C 58.730469 172.855469 59.539062 176.003906 60.585938 177.785156 C 62.796875 181.558594 67.589844 185.566406 71.730469 187.117188 L 73.910156 187.933594 L 74.339844 190.371094 C 74.574219 191.710938 74.914062 195.351562 75.089844 198.457031 C 75.425781 204.347656 75.542969 204.695312 77.171875 204.707031 C 78.589844 204.714844 78.996094 203.429688 79.257812 198.121094 C 79.636719 190.5 79.632812 190.507812 82.03125 189.667969 C 84.609375 188.761719 88.582031 186.058594 90.511719 183.886719 C 93.078125 181.003906 94.835938 176.195312 94.84375 172.027344 C 94.847656 171.132812 94.714844 171.019531 93.644531 171.019531 C 91.796875 171.019531 88.257812 172.050781 86.4375 173.117188 C 81.660156 175.914062 78.300781 181.828125 77.433594 188.964844 C 77.144531 191.335938 77.144531 191.339844 76.875 189.878906 C 76.726562 189.074219 76.324219 186.601562 75.980469 184.386719 C 75.257812 179.699219 74.171875 176.570312 72.285156 173.726562 C 69.640625 169.746094 64.078125 166.644531 59.5625 166.628906 L 58.152344 166.625 Z M 299.429688 170.707031 C 299.300781 171.945312 299.195312 173.511719 299.195312 174.1875 L 299.195312 175.414062 L 294.800781 175.414062 L 294.800781 180.90625 L 298.765625 180.90625 L 298.890625 188.691406 C 299.007812 195.878906 299.082031 196.585938 299.828125 197.992188 C 301.605469 201.335938 305.199219 202.957031 309.359375 202.300781 L 311.460938 201.964844 L 311.644531 199.121094 C 311.800781 196.691406 311.75 196.3125 311.277344 196.507812 C 310.101562 196.996094 307.6875 197.085938 306.90625 196.667969 C 305.371094 195.84375 305.054688 194.246094 305.054688 187.328125 L 305.054688 180.90625 L 311.277344 180.90625 L 311.277344 175.78125 L 305.054688 175.78125 L 305.054688 168.457031 L 299.664062 168.457031 Z M 234.863281 175.726562 C 233.820312 176.085938 232.363281 176.84375 231.621094 177.410156 C 230.261719 178.449219 228.148438 181.386719 228.148438 182.246094 C 228.148438 182.5 228.765625 182.804688 229.523438 182.925781 C 230.277344 183.042969 231.519531 183.28125 232.277344 183.453125 C 233.550781 183.738281 233.703125 183.6875 234.164062 182.792969 C 234.921875 181.332031 235.855469 180.632812 237.726562 180.132812 C 239.191406 179.742188 239.652344 179.765625 241.125 180.328125 C 243.152344 181.105469 243.960938 182.203125 244.269531 184.613281 L 244.496094 186.402344 L 239.867188 186.402344 C 234.3125 186.402344 232.039062 186.964844 229.933594 188.867188 C 228.226562 190.410156 227.527344 191.628906 227.210938 193.609375 C 226.457031 198.308594 230.816406 202.601562 236.390625 202.648438 C 239.070312 202.671875 240.878906 202.085938 242.910156 200.535156 L 244.453125 199.359375 L 244.1875 202.148438 L 250.539062 202.148438 L 250.421875 192.167969 C 250.289062 180.949219 250.109375 180.0625 247.464844 177.742188 C 244.554688 175.183594 239 174.296875 234.863281 175.726562 M 320.800781 175.59375 C 318.679688 176.273438 316.585938 178.019531 315.625 179.90625 C 314.476562 182.15625 314.765625 185.527344 316.269531 187.382812 C 317.691406 189.140625 319.988281 190.277344 323.609375 191.023438 C 327.039062 191.730469 328.386719 192.363281 328.917969 193.53125 C 329.921875 195.730469 327.875 197.75 324.644531 197.75 C 322.179688 197.75 320.1875 196.460938 319.15625 194.199219 C 319.121094 194.121094 315.171875 195.082031 314.292969 195.382812 C 313.582031 195.625 314.707031 198.023438 316.292969 199.652344 C 318.371094 201.785156 320.769531 202.667969 324.464844 202.65625 C 326.882812 202.652344 327.984375 202.464844 329.40625 201.832031 C 334.265625 199.660156 336.347656 194.921875 334.257812 190.78125 C 333.246094 188.773438 330.445312 186.980469 327.433594 186.410156 C 323.09375 185.582031 321.796875 185.128906 321.089844 184.175781 C 318.96875 181.328125 323.863281 178.441406 327.28125 180.527344 C 327.929688 180.921875 328.703125 181.71875 329 182.296875 L 329.546875 183.355469 L 332.039062 182.539062 C 334.878906 181.613281 334.976562 181.328125 333.308594 178.898438 C 331.78125 176.667969 328.730469 175.253906 325.222656 175.148438 C 323.574219 175.097656 321.78125 175.277344 320.800781 175.59375 M 184.988281 176.238281 C 179.703125 191.011719 178.511719 194.066406 178.265625 193.472656 C 178.113281 193.105469 176.601562 189.019531 174.90625 184.386719 L 171.820312 175.964844 L 168.625 175.859375 C 165.707031 175.761719 165.449219 175.808594 165.621094 176.40625 C 165.722656 176.769531 167.976562 182.5 170.628906 189.148438 C 175.390625 201.09375 175.441406 201.25 175.015625 202.796875 C 174.777344 203.660156 173.976562 205.046875 173.234375 205.882812 C 171.980469 207.296875 171.730469 207.414062 169.621094 207.566406 L 167.359375 207.730469 L 167.359375 213.242188 L 169.910156 213.027344 C 174.15625 212.671875 177.039062 211.003906 178.902344 207.824219 C 179.609375 206.617188 190.832031 178.167969 191.429688 176.054688 C 191.59375 175.480469 191.289062 175.414062 188.449219 175.414062 C 185.5 175.414062 185.265625 175.46875 184.988281 176.238281 M 285.644531 188.964844 L 285.644531 202.148438 L 291.871094 202.148438 L 291.871094 175.78125 L 285.644531 175.78125 Z M 265.6875 181.214844 C 262.792969 182.589844 261.382812 185.117188 261.363281 188.964844 C 261.347656 192.570312 262.714844 195.199219 265.320312 196.570312 C 266.796875 197.347656 270.46875 197.328125 271.984375 196.535156 C 274.535156 195.203125 275.914062 192.136719 275.699219 188.289062 C 275.53125 185.382812 274.613281 183.410156 272.703125 181.867188 C 270.941406 180.441406 267.90625 180.15625 265.6875 181.214844 M 236.023438 190.746094 C 234.320312 191.519531 233.839844 192.042969 233.488281 193.507812 C 232.683594 196.875 236.933594 198.882812 240.855469 196.984375 C 242.839844 196.023438 244.261719 193.773438 244.261719 191.585938 L 244.261719 190.0625 L 240.875 190.070312 C 238.394531 190.078125 237.097656 190.257812 236.023438 190.746094 " fill-opacity="1" fill-rule="evenodd"/></g><g clip-path="url(#9103180636)"><path fill="#23b659" d="M 49.007812 149.742188 C 47.132812 150.605469 44.945312 153.023438 44.417969 154.824219 C 44.125 155.808594 44.039062 162.164062 44.125 176.246094 C 44.25 195.84375 44.269531 196.3125 45.0625 198.414062 C 47.101562 203.824219 48.5625 205.191406 61.457031 213.785156 C 73.898438 222.070312 74.699219 222.53125 76.675781 222.53125 C 78.394531 222.53125 79.996094 221.710938 86.828125 217.320312 C 100.472656 208.558594 105.378906 204.519531 107.367188 200.414062 C 109.378906 196.269531 109.417969 195.753906 109.445312 174.574219 C 109.472656 153.269531 109.503906 153.609375 107.382812 151.507812 C 104.964844 149.113281 106.789062 149.253906 77.292969 149.15625 C 51.953125 149.074219 50.398438 149.105469 49.007812 149.742188 M 255.636719 182.84375 L 255.636719 201.957031 L 261.953125 201.957031 L 261.828125 200.34375 L 261.695312 198.734375 L 263.117188 200.015625 C 265.121094 201.824219 266.796875 202.445312 269.777344 202.476562 C 274.78125 202.527344 278.785156 200.046875 281.023438 195.503906 C 282.003906 193.511719 282.214844 192.601562 282.367188 189.722656 C 282.578125 185.628906 281.925781 182.898438 280.054688 180.039062 C 276.375 174.425781 267.960938 172.984375 263.117188 177.132812 L 261.695312 178.351562 L 261.695312 163.941406 L 255.636719 163.726562 Z M 287.777344 164.101562 C 286.609375 164.582031 285.742188 165.761719 285.511719 167.1875 C 285.324219 168.351562 285.457031 168.667969 286.59375 169.808594 C 288.304688 171.519531 290.09375 171.597656 291.664062 170.027344 C 293.527344 168.164062 293.039062 165.253906 290.699219 164.273438 C 289.308594 163.695312 288.84375 163.667969 287.777344 164.101562 M 125.96875 183.214844 L 125.96875 201.957031 L 132.203125 201.957031 L 132.296875 188.277344 L 132.394531 174.59375 L 141.578125 195.367188 L 146.21875 195.164062 L 150.964844 184.878906 L 155.714844 174.59375 L 155.714844 188.089844 L 155.722656 201.59375 L 161.964844 201.59375 L 161.964844 164.488281 L 157.832031 164.492188 L 153.699219 164.492188 L 148.960938 175.699219 C 146.355469 181.863281 144.15625 186.84375 144.078125 186.765625 C 143.996094 186.683594 141.8125 181.679688 139.226562 175.648438 L 134.519531 164.675781 L 130.242188 164.570312 L 125.96875 164.46875 Z M 194.472656 183.222656 L 194.472656 201.957031 L 200.929688 201.957031 L 200.71875 185.792969 L 209.074219 185.796875 L 217.433594 185.796875 L 217.433594 201.957031 L 223.679688 201.957031 L 223.679688 164.488281 L 217.433594 164.488281 L 217.433594 180.285156 L 209.074219 180.285156 L 200.71875 180.289062 L 200.933594 164.488281 L 194.472656 164.488281 Z M 58.179688 168.988281 C 58.511719 172.574219 59.324219 175.730469 60.375 177.523438 C 62.59375 181.304688 67.398438 185.328125 71.554688 186.878906 L 73.742188 187.699219 L 74.171875 190.144531 C 74.40625 191.488281 74.746094 195.140625 74.921875 198.253906 C 75.261719 204.164062 75.378906 204.511719 77.011719 204.523438 C 78.433594 204.535156 78.84375 203.242188 79.105469 197.917969 C 79.484375 190.273438 79.480469 190.28125 81.886719 189.4375 C 84.472656 188.53125 88.457031 185.816406 90.394531 183.640625 C 92.964844 180.746094 94.730469 175.921875 94.742188 171.746094 C 94.742188 170.847656 94.609375 170.734375 93.535156 170.734375 C 91.679688 170.734375 88.132812 171.769531 86.308594 172.835938 C 81.515625 175.644531 78.144531 181.574219 77.277344 188.734375 C 76.984375 191.113281 76.984375 191.117188 76.710938 189.652344 C 76.5625 188.84375 76.160156 186.363281 75.816406 184.144531 C 75.089844 179.441406 74 176.300781 72.109375 173.449219 C 69.460938 169.457031 63.878906 166.347656 59.351562 166.332031 L 57.933594 166.328125 Z M 299.953125 170.421875 C 299.824219 171.664062 299.714844 173.234375 299.714844 173.910156 L 299.714844 175.144531 L 295.308594 175.144531 L 295.308594 180.652344 L 299.285156 180.652344 L 299.414062 188.460938 C 299.53125 195.671875 299.601562 196.382812 300.351562 197.789062 C 302.136719 201.144531 305.738281 202.769531 309.910156 202.109375 L 312.023438 201.777344 L 312.207031 198.921875 C 312.363281 196.484375 312.308594 196.105469 311.839844 196.300781 C 310.660156 196.789062 308.234375 196.878906 307.453125 196.460938 C 305.910156 195.636719 305.59375 194.03125 305.59375 187.09375 L 305.59375 180.652344 L 311.839844 180.652344 L 311.839844 175.511719 L 305.59375 175.511719 L 305.59375 168.164062 L 300.1875 168.164062 Z M 235.1875 175.453125 C 234.144531 175.816406 232.679688 176.578125 231.933594 177.144531 C 230.570312 178.1875 228.453125 181.132812 228.453125 181.996094 C 228.453125 182.25 229.074219 182.554688 229.832031 182.675781 C 230.589844 182.796875 231.832031 183.035156 232.59375 183.207031 C 233.871094 183.492188 234.023438 183.4375 234.484375 182.542969 C 235.242188 181.078125 236.179688 180.378906 238.058594 179.875 C 239.53125 179.480469 239.988281 179.507812 241.46875 180.074219 C 243.503906 180.851562 244.3125 181.953125 244.621094 184.371094 L 244.851562 186.164062 L 240.210938 186.164062 C 234.636719 186.164062 232.355469 186.726562 230.246094 188.636719 C 228.53125 190.183594 227.828125 191.40625 227.511719 193.394531 C 226.757812 198.109375 231.128906 202.414062 236.71875 202.460938 C 239.40625 202.484375 241.222656 201.898438 243.257812 200.34375 L 244.804688 199.160156 L 244.539062 201.957031 L 250.914062 201.957031 L 250.796875 191.949219 C 250.664062 180.691406 250.480469 179.804688 247.828125 177.476562 C 244.910156 174.910156 239.339844 174.023438 235.1875 175.453125 M 321.390625 175.324219 C 319.261719 176.003906 317.164062 177.753906 316.195312 179.648438 C 315.042969 181.90625 315.335938 185.285156 316.847656 187.148438 C 318.273438 188.910156 320.574219 190.050781 324.203125 190.796875 C 327.648438 191.507812 329 192.144531 329.53125 193.316406 C 330.535156 195.519531 328.484375 197.546875 325.246094 197.546875 C 322.773438 197.546875 320.773438 196.253906 319.742188 193.984375 C 319.703125 193.90625 315.742188 194.871094 314.859375 195.171875 C 314.144531 195.414062 315.273438 197.824219 316.867188 199.457031 C 318.953125 201.59375 321.359375 202.480469 325.0625 202.46875 C 327.488281 202.464844 328.59375 202.277344 330.019531 201.640625 C 334.894531 199.460938 336.984375 194.707031 334.890625 190.558594 C 333.875 188.542969 331.066406 186.746094 328.042969 186.167969 C 323.6875 185.34375 322.386719 184.886719 321.679688 183.933594 C 319.550781 181.074219 324.460938 178.179688 327.890625 180.269531 C 328.539062 180.664062 329.316406 181.464844 329.613281 182.046875 L 330.164062 183.105469 L 332.664062 182.289062 C 335.511719 181.359375 335.609375 181.074219 333.9375 178.636719 C 332.402344 176.398438 329.34375 174.980469 325.824219 174.875 C 324.171875 174.824219 322.371094 175.007812 321.390625 175.324219 M 185.160156 175.96875 C 179.859375 190.789062 178.664062 193.851562 178.417969 193.253906 C 178.265625 192.890625 176.75 188.789062 175.046875 184.144531 L 171.949219 175.695312 L 168.746094 175.585938 C 165.816406 175.488281 165.5625 175.535156 165.734375 176.136719 C 165.835938 176.5 168.097656 182.25 170.753906 188.917969 C 175.535156 200.902344 175.582031 201.058594 175.15625 202.609375 C 174.914062 203.476562 174.113281 204.867188 173.371094 205.707031 C 172.109375 207.125 171.863281 207.238281 169.746094 207.390625 L 167.476562 207.554688 L 167.476562 213.085938 L 170.035156 212.871094 C 174.296875 212.511719 177.183594 210.84375 179.054688 207.652344 C 179.765625 206.441406 191.019531 177.902344 191.621094 175.785156 C 191.785156 175.210938 191.476562 175.144531 188.632812 175.144531 C 185.671875 175.144531 185.4375 175.199219 185.160156 175.96875 M 286.125 188.734375 L 286.125 201.957031 L 292.371094 201.957031 L 292.371094 175.511719 L 286.125 175.511719 Z M 266.105469 180.960938 C 263.203125 182.339844 261.789062 184.878906 261.769531 188.734375 C 261.753906 192.351562 263.125 194.988281 265.738281 196.363281 C 267.21875 197.144531 270.902344 197.125 272.421875 196.328125 C 274.980469 194.992188 276.367188 191.914062 276.148438 188.058594 C 275.980469 185.140625 275.058594 183.164062 273.144531 181.613281 C 271.378906 180.183594 268.332031 179.902344 266.105469 180.960938 M 236.351562 190.519531 C 234.644531 191.296875 234.160156 191.824219 233.808594 193.289062 C 233 196.671875 237.265625 198.683594 241.199219 196.78125 C 243.191406 195.816406 244.617188 193.558594 244.617188 191.367188 L 244.617188 189.835938 L 241.21875 189.84375 C 238.730469 189.851562 237.425781 190.03125 236.351562 190.519531 " fill-opacity="1" fill-rule="evenodd"/></g></svg>