<svg xmlns="http://www.w3.org/2000/svg" xmlns:xlink="http://www.w3.org/1999/xlink" width="500" zoomAndPan="magnify" viewBox="0 0 375 374.999991" height="500" preserveAspectRatio="xMidYMid meet" version="1.0"><defs><clipPath id="137e518ec3"><path d="M 46 158.59375 L 104 158.59375 L 104 205 L 46 205 Z M 46 158.59375 " clip-rule="nonzero"/></clipPath><clipPath id="a23c9b2c89"><path d="M 44 149 L 119.25 149 L 119.25 223 L 44 223 Z M 44 149 " clip-rule="nonzero"/></clipPath><clipPath id="117a3c88fe"><path d="M 122.195312 149 L 336 149 L 336 223 L 122.195312 223 Z M 122.195312 149 " clip-rule="nonzero"/></clipPath></defs><g clip-path="url(#137e518ec3)"><path fill="#23b659" d="M 49.683594 161.207031 C 44.082031 164.53125 46.753906 189.679688 48.238281 197.734375 C 48.929688 201.492188 53.15625 203.007812 60.324219 203.433594 C 64.941406 203.710938 90.257812 205.484375 98.546875 201.679688 C 100.585938 200.742188 102.027344 198.484375 102.40625 196.886719 C 104.894531 186.417969 103.773438 178.847656 103.433594 167.167969 C 103.316406 163.171875 100.417969 159.847656 90.667969 159.589844 C 84.050781 159.414062 77.515625 158.875 68.367188 158.734375 C 59.289062 158.597656 52.804688 159.355469 49.683594 161.207031 Z M 49.683594 161.207031 " fill-opacity="1" fill-rule="evenodd"/></g><g clip-path="url(#a23c9b2c89)"><path fill="#000000" d="M 49.253906 150.09375 C 47.386719 150.949219 45.207031 153.363281 44.675781 155.160156 C 44.386719 156.140625 44.300781 162.472656 44.386719 176.511719 C 44.507812 196.050781 44.527344 196.515625 45.320312 198.613281 C 47.355469 204.007812 48.808594 205.371094 61.667969 213.9375 C 74.066406 222.199219 74.863281 222.65625 76.835938 222.65625 C 78.550781 222.65625 80.144531 221.839844 86.960938 217.464844 C 100.5625 208.726562 105.453125 204.703125 107.4375 200.609375 C 109.4375 196.476562 109.480469 195.960938 109.507812 174.847656 C 109.535156 153.609375 109.5625 153.945312 107.449219 151.851562 C 105.039062 149.464844 106.855469 149.605469 77.453125 149.507812 C 52.1875 149.425781 50.640625 149.457031 49.253906 150.09375 M 255.25 183.089844 L 255.25 202.148438 L 261.546875 202.148438 L 261.421875 200.539062 L 261.292969 198.933594 L 262.703125 200.210938 C 264.703125 202.015625 266.375 202.632812 269.347656 202.664062 C 274.335938 202.71875 278.328125 200.242188 280.558594 195.714844 C 281.535156 193.726562 281.746094 192.820312 281.898438 189.949219 C 282.109375 185.867188 281.460938 183.144531 279.589844 180.296875 C 275.925781 174.699219 267.539062 173.261719 262.707031 177.398438 L 261.292969 178.613281 L 261.292969 164.246094 L 258.269531 164.140625 L 255.25 164.03125 Z M 287.292969 164.410156 C 286.128906 164.886719 285.265625 166.0625 285.035156 167.484375 C 284.84375 168.644531 284.976562 168.960938 286.109375 170.09375 C 287.820312 171.804688 289.601562 171.882812 291.164062 170.316406 C 293.023438 168.457031 292.535156 165.554688 290.203125 164.582031 C 288.816406 164 288.355469 163.972656 287.292969 164.410156 M 125.976562 183.460938 L 125.976562 202.148438 L 132.191406 202.148438 L 132.386719 174.867188 L 136.960938 185.222656 L 141.539062 195.578125 L 146.164062 195.375 L 155.632812 174.867188 L 155.640625 201.78125 L 161.863281 201.78125 L 161.863281 164.792969 L 157.746094 164.796875 L 153.625 164.796875 L 148.902344 175.96875 C 146.300781 182.117188 144.109375 187.078125 144.03125 187 C 143.953125 186.921875 141.777344 181.933594 139.195312 175.917969 L 134.503906 164.976562 L 130.238281 164.875 L 125.976562 164.773438 Z M 194.273438 183.472656 L 194.273438 202.148438 L 200.710938 202.148438 L 200.605469 194.089844 L 200.5 186.035156 L 217.164062 186.035156 L 217.164062 202.148438 L 223.386719 202.148438 L 223.386719 164.792969 L 217.164062 164.792969 L 217.164062 180.542969 L 200.5 180.542969 L 200.710938 164.792969 L 194.273438 164.792969 Z M 58.398438 169.28125 C 58.730469 172.855469 59.539062 176.003906 60.585938 177.785156 C 62.796875 181.558594 67.589844 185.566406 71.730469 187.117188 L 73.910156 187.933594 L 74.339844 190.371094 C 74.574219 191.710938 74.914062 195.351562 75.089844 198.457031 C 75.425781 204.347656 75.542969 204.695312 77.171875 204.707031 C 78.589844 204.714844 78.996094 203.429688 79.257812 198.121094 C 79.636719 190.5 79.632812 190.507812 82.03125 189.667969 C 84.609375 188.761719 88.582031 186.058594 90.511719 183.886719 C 93.078125 181.003906 94.835938 176.195312 94.84375 172.027344 C 94.847656 171.132812 94.714844 171.019531 93.644531 171.019531 C 91.796875 171.019531 88.257812 172.050781 86.4375 173.117188 C 81.660156 175.914062 78.300781 181.828125 77.433594 188.964844 C 77.144531 191.335938 77.144531 191.339844 76.875 189.878906 C 76.726562 189.074219 76.324219 186.601562 75.980469 184.386719 C 75.257812 179.699219 74.171875 176.570312 72.285156 173.726562 C 69.640625 169.746094 64.078125 166.644531 59.5625 166.628906 L 58.152344 166.625 Z M 299.429688 170.707031 C 299.300781 171.945312 299.195312 173.511719 299.195312 174.1875 L 299.195312 175.414062 L 294.800781 175.414062 L 294.800781 180.90625 L 298.765625 180.90625 L 298.890625 188.691406 C 299.007812 195.878906 299.082031 196.585938 299.828125 197.992188 C 301.605469 201.335938 305.199219 202.957031 309.359375 202.300781 L 311.460938 201.964844 L 311.644531 199.121094 C 311.800781 196.691406 311.75 196.3125 311.277344 196.507812 C 310.101562 196.996094 307.6875 197.085938 306.90625 196.667969 C 305.371094 195.84375 305.054688 194.246094 305.054688 187.328125 L 305.054688 180.90625 L 311.277344 180.90625 L 311.277344 175.78125 L 305.054688 175.78125 L 305.054688 168.457031 L 299.664062 168.457031 Z M 234.863281 175.726562 C 233.820312 176.085938 232.363281 176.84375 231.621094 177.410156 C 230.261719 178.449219 228.148438 181.386719 228.148438 182.246094 C 228.148438 182.5 228.765625 182.804688 229.523438 182.925781 C 230.277344 183.042969 231.519531 183.28125 232.277344 183.453125 C 233.550781 183.738281 233.703125 183.6875 234.164062 182.792969 C 234.921875 181.332031 235.855469 180.632812 237.726562 180.132812 C 239.191406 179.742188 239.652344 179.765625 241.125 180.328125 C 243.152344 181.105469 243.960938 182.203125 244.269531 184.613281 L 244.496094 186.402344 L 239.867188 186.402344 C 234.3125 186.402344 232.039062 186.964844 229.933594 188.867188 C 228.226562 190.410156 227.527344 191.628906 227.210938 193.609375 C 226.457031 198.308594 230.816406 202.601562 236.390625 202.648438 C 239.070312 202.671875 240.878906 202.085938 242.910156 200.535156 L 244.453125 199.359375 L 244.1875 202.148438 L 250.539062 202.148438 L 250.421875 192.167969 C 250.289062 180.949219 250.109375 180.0625 247.464844 177.742188 C 244.554688 175.183594 239 174.296875 234.863281 175.726562 M 320.800781 175.59375 C 318.679688 176.273438 316.585938 178.019531 315.625 179.90625 C 314.476562 182.15625 314.765625 185.527344 316.269531 187.382812 C 317.691406 189.140625 319.988281 190.277344 323.609375 191.023438 C 327.039062 191.730469 328.386719 192.363281 328.917969 193.53125 C 329.921875 195.730469 327.875 197.75 324.644531 197.75 C 322.179688 197.75 320.1875 196.460938 319.15625 194.199219 C 319.121094 194.121094 315.171875 195.082031 314.292969 195.382812 C 313.582031 195.625 314.707031 198.023438 316.292969 199.652344 C 318.371094 201.785156 320.769531 202.667969 324.464844 202.65625 C 326.882812 202.652344 327.984375 202.464844 329.40625 201.832031 C 334.265625 199.660156 336.347656 194.921875 334.257812 190.78125 C 333.246094 188.773438 330.445312 186.980469 327.433594 186.410156 C 323.09375 185.582031 321.796875 185.128906 321.089844 184.175781 C 318.96875 181.328125 323.863281 178.441406 327.28125 180.527344 C 327.929688 180.921875 328.703125 181.71875 329 182.296875 L 329.546875 183.355469 L 332.039062 182.539062 C 334.878906 181.613281 334.976562 181.328125 333.308594 178.898438 C 331.78125 176.667969 328.730469 175.253906 325.222656 175.148438 C 323.574219 175.097656 321.78125 175.277344 320.800781 175.59375 M 184.988281 176.238281 C 179.703125 191.011719 178.511719 194.066406 178.265625 193.472656 C 178.113281 193.105469 176.601562 189.019531 174.90625 184.386719 L 171.820312 175.964844 L 168.625 175.859375 C 165.707031 175.761719 165.449219 175.808594 165.621094 176.40625 C 165.722656 176.769531 167.976562 182.5 170.628906 189.148438 C 175.390625 201.09375 175.441406 201.25 175.015625 202.796875 C 174.777344 203.660156 173.976562 205.046875 173.234375 205.882812 C 171.980469 207.296875 171.730469 207.414062 169.621094 207.566406 L 167.359375 207.730469 L 167.359375 213.242188 L 169.910156 213.027344 C 174.15625 212.671875 177.039062 211.003906 178.902344 207.824219 C 179.609375 206.617188 190.832031 178.167969 191.429688 176.054688 C 191.59375 175.480469 191.289062 175.414062 188.449219 175.414062 C 185.5 175.414062 185.265625 175.46875 184.988281 176.238281 M 285.644531 188.964844 L 285.644531 202.148438 L 291.871094 202.148438 L 291.871094 175.78125 L 285.644531 175.78125 Z M 265.6875 181.214844 C 262.792969 182.589844 261.382812 185.117188 261.363281 188.964844 C 261.347656 192.570312 262.714844 195.199219 265.320312 196.570312 C 266.796875 197.347656 270.46875 197.328125 271.984375 196.535156 C 274.535156 195.203125 275.914062 192.136719 275.699219 188.289062 C 275.53125 185.382812 274.613281 183.410156 272.703125 181.867188 C 270.941406 180.441406 267.90625 180.15625 265.6875 181.214844 M 236.023438 190.746094 C 234.320312 191.519531 233.839844 192.042969 233.488281 193.507812 C 232.683594 196.875 236.933594 198.882812 240.855469 196.984375 C 242.839844 196.023438 244.261719 193.773438 244.261719 191.585938 L 244.261719 190.0625 L 240.875 190.070312 C 238.394531 190.078125 237.097656 190.257812 236.023438 190.746094 " fill-opacity="1" fill-rule="evenodd"/></g><g clip-path="url(#117a3c88fe)"><path fill="#ffffff" d="M 49.253906 150.09375 C 47.386719 150.949219 45.207031 153.363281 44.675781 155.160156 C 44.386719 156.140625 44.300781 162.472656 44.386719 176.511719 C 44.507812 196.050781 44.527344 196.515625 45.320312 198.613281 C 47.355469 204.007812 48.808594 205.371094 61.667969 213.9375 C 74.066406 222.199219 74.863281 222.65625 76.835938 222.65625 C 78.550781 222.65625 80.144531 221.839844 86.960938 217.464844 C 100.5625 208.726562 105.453125 204.703125 107.4375 200.609375 C 109.4375 196.476562 109.480469 195.960938 109.507812 174.847656 C 109.535156 153.609375 109.5625 153.945312 107.449219 151.851562 C 105.039062 149.464844 106.855469 149.605469 77.453125 149.507812 C 52.1875 149.425781 50.640625 149.457031 49.253906 150.09375 M 255.25 183.089844 L 255.25 202.148438 L 261.546875 202.148438 L 261.421875 200.539062 L 261.292969 198.933594 L 262.703125 200.210938 C 264.703125 202.015625 266.375 202.632812 269.347656 202.664062 C 274.335938 202.71875 278.328125 200.242188 280.558594 195.714844 C 281.535156 193.726562 281.746094 192.820312 281.898438 189.949219 C 282.109375 185.867188 281.460938 183.144531 279.589844 180.296875 C 275.925781 174.699219 267.539062 173.261719 262.707031 177.398438 L 261.292969 178.613281 L 261.292969 164.246094 L 258.269531 164.140625 L 255.25 164.03125 Z M 287.292969 164.410156 C 286.128906 164.886719 285.265625 166.0625 285.035156 167.484375 C 284.84375 168.644531 284.976562 168.960938 286.109375 170.09375 C 287.820312 171.804688 289.601562 171.882812 291.164062 170.316406 C 293.023438 168.457031 292.535156 165.554688 290.203125 164.582031 C 288.816406 164 288.355469 163.972656 287.292969 164.410156 M 125.976562 183.460938 L 125.976562 202.148438 L 132.191406 202.148438 L 132.386719 174.867188 L 136.960938 185.222656 L 141.539062 195.578125 L 146.164062 195.375 L 155.632812 174.867188 L 155.640625 201.78125 L 161.863281 201.78125 L 161.863281 164.792969 L 157.746094 164.796875 L 153.625 164.796875 L 148.902344 175.96875 C 146.300781 182.117188 144.109375 187.078125 144.03125 187 C 143.953125 186.921875 141.777344 181.933594 139.195312 175.917969 L 134.503906 164.976562 L 130.238281 164.875 L 125.976562 164.773438 Z M 194.273438 183.472656 L 194.273438 202.148438 L 200.710938 202.148438 L 200.605469 194.089844 L 200.5 186.035156 L 217.164062 186.035156 L 217.164062 202.148438 L 223.386719 202.148438 L 223.386719 164.792969 L 217.164062 164.792969 L 217.164062 180.542969 L 200.5 180.542969 L 200.710938 164.792969 L 194.273438 164.792969 Z M 58.398438 169.28125 C 58.730469 172.855469 59.539062 176.003906 60.585938 177.785156 C 62.796875 181.558594 67.589844 185.566406 71.730469 187.117188 L 73.910156 187.933594 L 74.339844 190.371094 C 74.574219 191.710938 74.914062 195.351562 75.089844 198.457031 C 75.425781 204.347656 75.542969 204.695312 77.171875 204.707031 C 78.589844 204.714844 78.996094 203.429688 79.257812 198.121094 C 79.636719 190.5 79.632812 190.507812 82.03125 189.667969 C 84.609375 188.761719 88.582031 186.058594 90.511719 183.886719 C 93.078125 181.003906 94.835938 176.195312 94.84375 172.027344 C 94.847656 171.132812 94.714844 171.019531 93.644531 171.019531 C 91.796875 171.019531 88.257812 172.050781 86.4375 173.117188 C 81.660156 175.914062 78.300781 181.828125 77.433594 188.964844 C 77.144531 191.335938 77.144531 191.339844 76.875 189.878906 C 76.726562 189.074219 76.324219 186.601562 75.980469 184.386719 C 75.257812 179.699219 74.171875 176.570312 72.285156 173.726562 C 69.640625 169.746094 64.078125 166.644531 59.5625 166.628906 L 58.152344 166.625 Z M 299.429688 170.707031 C 299.300781 171.945312 299.195312 173.511719 299.195312 174.1875 L 299.195312 175.414062 L 294.800781 175.414062 L 294.800781 180.90625 L 298.765625 180.90625 L 298.890625 188.691406 C 299.007812 195.878906 299.082031 196.585938 299.828125 197.992188 C 301.605469 201.335938 305.199219 202.957031 309.359375 202.300781 L 311.460938 201.964844 L 311.644531 199.121094 C 311.800781 196.691406 311.75 196.3125 311.277344 196.507812 C 310.101562 196.996094 307.6875 197.085938 306.90625 196.667969 C 305.371094 195.84375 305.054688 194.246094 305.054688 187.328125 L 305.054688 180.90625 L 311.277344 180.90625 L 311.277344 175.78125 L 305.054688 175.78125 L 305.054688 168.457031 L 299.664062 168.457031 Z M 234.863281 175.726562 C 233.820312 176.085938 232.363281 176.84375 231.621094 177.410156 C 230.261719 178.449219 228.148438 181.386719 228.148438 182.246094 C 228.148438 182.5 228.765625 182.804688 229.523438 182.925781 C 230.277344 183.042969 231.519531 183.28125 232.277344 183.453125 C 233.550781 183.738281 233.703125 183.6875 234.164062 182.792969 C 234.921875 181.332031 235.855469 180.632812 237.726562 180.132812 C 239.191406 179.742188 239.652344 179.765625 241.125 180.328125 C 243.152344 181.105469 243.960938 182.203125 244.269531 184.613281 L 244.496094 186.402344 L 239.867188 186.402344 C 234.3125 186.402344 232.039062 186.964844 229.933594 188.867188 C 228.226562 190.410156 227.527344 191.628906 227.210938 193.609375 C 226.457031 198.308594 230.816406 202.601562 236.390625 202.648438 C 239.070312 202.671875 240.878906 202.085938 242.910156 200.535156 L 244.453125 199.359375 L 244.1875 202.148438 L 250.539062 202.148438 L 250.421875 192.167969 C 250.289062 180.949219 250.109375 180.0625 247.464844 177.742188 C 244.554688 175.183594 239 174.296875 234.863281 175.726562 M 320.800781 175.59375 C 318.679688 176.273438 316.585938 178.019531 315.625 179.90625 C 314.476562 182.15625 314.765625 185.527344 316.269531 187.382812 C 317.691406 189.140625 319.988281 190.277344 323.609375 191.023438 C 327.039062 191.730469 328.386719 192.363281 328.917969 193.53125 C 329.921875 195.730469 327.875 197.75 324.644531 197.75 C 322.179688 197.75 320.1875 196.460938 319.15625 194.199219 C 319.121094 194.121094 315.171875 195.082031 314.292969 195.382812 C 313.582031 195.625 314.707031 198.023438 316.292969 199.652344 C 318.371094 201.785156 320.769531 202.667969 324.464844 202.65625 C 326.882812 202.652344 327.984375 202.464844 329.40625 201.832031 C 334.265625 199.660156 336.347656 194.921875 334.257812 190.78125 C 333.246094 188.773438 330.445312 186.980469 327.433594 186.410156 C 323.09375 185.582031 321.796875 185.128906 321.089844 184.175781 C 318.96875 181.328125 323.863281 178.441406 327.28125 180.527344 C 327.929688 180.921875 328.703125 181.71875 329 182.296875 L 329.546875 183.355469 L 332.039062 182.539062 C 334.878906 181.613281 334.976562 181.328125 333.308594 178.898438 C 331.78125 176.667969 328.730469 175.253906 325.222656 175.148438 C 323.574219 175.097656 321.78125 175.277344 320.800781 175.59375 M 184.988281 176.238281 C 179.703125 191.011719 178.511719 194.066406 178.265625 193.472656 C 178.113281 193.105469 176.601562 189.019531 174.90625 184.386719 L 171.820312 175.964844 L 168.625 175.859375 C 165.707031 175.761719 165.449219 175.808594 165.621094 176.40625 C 165.722656 176.769531 167.976562 182.5 170.628906 189.148438 C 175.390625 201.09375 175.441406 201.25 175.015625 202.796875 C 174.777344 203.660156 173.976562 205.046875 173.234375 205.882812 C 171.980469 207.296875 171.730469 207.414062 169.621094 207.566406 L 167.359375 207.730469 L 167.359375 213.242188 L 169.910156 213.027344 C 174.15625 212.671875 177.039062 211.003906 178.902344 207.824219 C 179.609375 206.617188 190.832031 178.167969 191.429688 176.054688 C 191.59375 175.480469 191.289062 175.414062 188.449219 175.414062 C 185.5 175.414062 185.265625 175.46875 184.988281 176.238281 M 285.644531 188.964844 L 285.644531 202.148438 L 291.871094 202.148438 L 291.871094 175.78125 L 285.644531 175.78125 Z M 265.6875 181.214844 C 262.792969 182.589844 261.382812 185.117188 261.363281 188.964844 C 261.347656 192.570312 262.714844 195.199219 265.320312 196.570312 C 266.796875 197.347656 270.46875 197.328125 271.984375 196.535156 C 274.535156 195.203125 275.914062 192.136719 275.699219 188.289062 C 275.53125 185.382812 274.613281 183.410156 272.703125 181.867188 C 270.941406 180.441406 267.90625 180.15625 265.6875 181.214844 M 236.023438 190.746094 C 234.320312 191.519531 233.839844 192.042969 233.488281 193.507812 C 232.683594 196.875 236.933594 198.882812 240.855469 196.984375 C 242.839844 196.023438 244.261719 193.773438 244.261719 191.585938 L 244.261719 190.0625 L 240.875 190.070312 C 238.394531 190.078125 237.097656 190.257812 236.023438 190.746094 " fill-opacity="1" fill-rule="evenodd"/></g></svg>