<svg xmlns="http://www.w3.org/2000/svg" xmlns:xlink="http://www.w3.org/1999/xlink" width="500" zoomAndPan="magnify" viewBox="0 0 375 374.999991" height="500" preserveAspectRatio="xMidYMid meet" version="1.0"><defs><clipPath id="69b9d87996"><path d="M 104.25 101.5 L 275.964844 101.5 L 275.964844 277 L 104.25 277 Z M 104.25 101.5 " clip-rule="nonzero"/></clipPath></defs><g clip-path="url(#69b9d87996)"><path fill="#23b659" d="M 116.179688 103.179688 C 111.707031 105.234375 106.492188 111.003906 105.226562 115.300781 C 104.53125 117.648438 104.328125 132.796875 104.535156 166.378906 C 104.828125 213.113281 104.875 214.230469 106.769531 219.246094 C 111.632812 232.148438 115.113281 235.410156 145.867188 255.898438 C 175.527344 275.65625 177.4375 276.753906 182.152344 276.753906 C 186.257812 276.753906 190.070312 274.796875 206.367188 264.332031 C 238.90625 243.4375 250.605469 233.808594 255.347656 224.019531 C 260.136719 214.132812 260.238281 212.898438 260.300781 162.394531 C 260.367188 111.589844 260.4375 112.398438 255.382812 107.390625 C 249.617188 101.679688 253.960938 102.015625 183.628906 101.785156 C 123.199219 101.585938 119.492188 101.660156 116.179688 103.179688 M 608.917969 182.113281 L 608.917969 227.699219 L 623.984375 227.699219 L 623.679688 223.851562 L 623.371094 220.007812 L 626.753906 223.0625 C 631.535156 227.378906 635.535156 228.859375 642.640625 228.933594 C 654.570312 229.058594 664.125 223.136719 669.457031 212.308594 C 671.796875 207.554688 672.300781 205.386719 672.660156 198.515625 C 673.167969 188.753906 671.613281 182.242188 667.144531 175.425781 C 658.375 162.042969 638.3125 158.605469 626.757812 168.5 L 623.371094 171.402344 L 623.371094 137.035156 L 608.917969 136.527344 Z M 685.566406 137.425781 C 682.78125 138.566406 680.714844 141.378906 680.160156 144.785156 C 679.710938 147.554688 680.027344 148.3125 682.738281 151.027344 C 686.824219 155.113281 691.085938 155.300781 694.832031 151.554688 C 699.273438 147.113281 698.109375 140.167969 692.53125 137.835938 C 689.214844 136.449219 688.105469 136.386719 685.566406 137.425781 M 299.699219 182.996094 L 299.699219 227.699219 L 314.566406 227.699219 L 314.796875 195.070312 L 315.027344 162.4375 L 336.925781 211.984375 L 347.988281 211.492188 L 359.308594 186.964844 L 370.632812 162.4375 L 370.640625 194.628906 L 370.652344 226.824219 L 385.542969 226.824219 L 385.542969 138.347656 L 375.6875 138.351562 L 365.832031 138.351562 L 354.53125 165.078125 C 348.316406 179.78125 343.074219 191.652344 342.882812 191.464844 C 342.695312 191.273438 337.488281 179.34375 331.316406 164.953125 L 320.09375 138.789062 L 309.894531 138.539062 L 299.699219 138.292969 Z M 463.066406 183.023438 L 463.066406 227.699219 L 478.460938 227.699219 L 478.210938 208.425781 L 477.957031 189.152344 L 497.886719 189.15625 L 517.816406 189.15625 L 517.816406 227.699219 L 532.707031 227.699219 L 532.707031 138.347656 L 517.816406 138.347656 L 517.816406 176.015625 L 497.886719 176.015625 L 477.957031 176.019531 L 478.464844 138.347656 L 463.066406 138.347656 Z M 138.050781 149.078125 C 138.839844 157.628906 140.773438 165.15625 143.28125 169.425781 C 148.574219 178.445312 160.035156 188.039062 169.945312 191.742188 L 175.15625 193.691406 L 176.179688 199.527344 C 176.742188 202.734375 177.550781 211.4375 177.976562 218.867188 C 178.78125 232.957031 179.058594 233.789062 182.953125 233.816406 C 186.347656 233.839844 187.320312 230.761719 187.949219 218.0625 C 188.847656 199.835938 188.84375 199.851562 194.582031 197.84375 C 200.75 195.679688 210.246094 189.207031 214.867188 184.011719 C 221 177.117188 225.207031 165.613281 225.234375 155.648438 C 225.238281 153.507812 224.917969 153.242188 222.359375 153.242188 C 217.9375 153.242188 209.472656 155.703125 205.121094 158.253906 C 193.699219 164.945312 185.660156 179.089844 183.585938 196.164062 C 182.894531 201.835938 182.886719 201.84375 182.242188 198.355469 C 181.886719 196.425781 180.925781 190.511719 180.109375 185.214844 C 178.375 174 175.777344 166.515625 171.261719 159.710938 C 164.945312 150.195312 151.640625 142.773438 140.839844 142.738281 L 137.464844 142.730469 Z M 714.597656 152.492188 C 714.289062 155.453125 714.035156 159.199219 714.035156 160.816406 L 714.035156 163.753906 L 703.523438 163.753906 L 703.523438 176.890625 L 713.007812 176.890625 L 713.3125 195.507812 C 713.59375 212.703125 713.761719 214.398438 715.550781 217.757812 C 719.804688 225.753906 728.398438 229.636719 738.347656 228.058594 L 743.378906 227.261719 L 743.816406 220.460938 C 744.191406 214.648438 744.066406 213.738281 742.941406 214.207031 C 740.128906 215.375 734.351562 215.585938 732.484375 214.589844 C 728.808594 212.621094 728.050781 208.796875 728.050781 192.25 L 728.050781 176.890625 L 742.941406 176.890625 L 742.941406 164.628906 L 728.050781 164.628906 L 728.050781 147.109375 L 715.160156 147.109375 Z M 560.152344 164.496094 C 557.664062 165.359375 554.171875 167.171875 552.398438 168.527344 C 549.144531 171.007812 544.09375 178.039062 544.09375 180.089844 C 544.09375 180.695312 545.574219 181.429688 547.378906 181.714844 C 549.1875 182.003906 552.152344 182.574219 553.972656 182.980469 C 557.011719 183.664062 557.378906 183.535156 558.480469 181.402344 C 560.289062 177.902344 562.523438 176.234375 567.003906 175.035156 C 570.511719 174.097656 571.605469 174.164062 575.132812 175.507812 C 579.984375 177.363281 581.910156 179.992188 582.652344 185.757812 L 583.199219 190.03125 L 572.128906 190.03125 C 558.835938 190.03125 553.398438 191.378906 548.367188 195.929688 C 544.28125 199.621094 542.605469 202.535156 541.847656 207.277344 C 540.050781 218.519531 550.476562 228.785156 563.804688 228.898438 C 570.214844 228.953125 574.542969 227.550781 579.398438 223.84375 L 583.089844 221.027344 L 582.773438 224.363281 L 582.453125 227.699219 L 597.65625 227.699219 L 597.375 203.828125 C 597.058594 176.984375 596.621094 174.867188 590.300781 169.316406 C 583.335938 163.199219 570.054688 161.078125 560.152344 164.496094 M 765.71875 164.179688 C 760.644531 165.808594 755.640625 169.980469 753.335938 174.496094 C 750.585938 179.882812 751.285156 187.9375 754.882812 192.382812 C 758.285156 196.585938 763.773438 199.304688 772.429688 201.085938 C 780.644531 202.773438 783.863281 204.296875 785.136719 207.089844 C 787.53125 212.347656 782.636719 217.179688 774.914062 217.179688 C 769.019531 217.179688 764.246094 214.09375 761.785156 208.683594 C 761.699219 208.5 752.253906 210.796875 750.148438 211.511719 C 748.445312 212.089844 751.136719 217.835938 754.933594 221.730469 C 759.90625 226.832031 765.644531 228.945312 774.476562 228.917969 C 780.261719 228.902344 782.898438 228.460938 786.300781 226.9375 C 797.925781 221.742188 802.902344 210.410156 797.910156 200.511719 C 795.488281 195.710938 788.792969 191.417969 781.585938 190.046875 C 771.199219 188.074219 768.097656 186.984375 766.40625 184.710938 C 761.335938 177.894531 773.046875 170.996094 781.222656 175.980469 C 782.765625 176.921875 784.617188 178.828125 785.332031 180.214844 L 786.640625 182.742188 L 792.601562 180.792969 C 799.390625 178.574219 799.625 177.898438 795.640625 172.085938 C 791.980469 166.75 784.683594 163.367188 776.292969 163.113281 C 772.351562 162.992188 768.058594 163.425781 765.71875 164.179688 M 440.855469 165.722656 C 428.214844 201.058594 425.359375 208.367188 424.773438 206.941406 C 424.414062 206.074219 420.796875 196.296875 416.734375 185.214844 L 409.351562 165.066406 L 401.714844 164.8125 C 394.730469 164.578125 394.117188 164.691406 394.527344 166.125 C 394.773438 166.988281 400.164062 180.703125 406.503906 196.601562 C 417.898438 225.175781 418.015625 225.550781 416.996094 229.253906 C 416.425781 231.316406 414.511719 234.632812 412.738281 236.632812 C 409.734375 240.015625 409.144531 240.292969 404.097656 240.65625 L 398.683594 241.046875 L 398.683594 254.230469 L 404.785156 253.71875 C 414.945312 252.867188 421.835938 248.882812 426.296875 241.277344 C 427.992188 238.390625 454.828125 170.335938 456.265625 165.285156 C 456.65625 163.910156 455.921875 163.753906 449.132812 163.753906 C 442.074219 163.753906 441.515625 163.886719 440.855469 165.722656 M 681.625 196.164062 L 681.625 227.699219 L 696.515625 227.699219 L 696.515625 164.628906 L 681.625 164.628906 Z M 633.882812 177.625 C 626.964844 180.910156 623.59375 186.964844 623.546875 196.164062 C 623.503906 204.785156 626.777344 211.078125 633.007812 214.355469 C 636.535156 216.214844 645.324219 216.167969 648.949219 214.273438 C 655.046875 211.085938 658.351562 203.746094 657.828125 194.550781 C 657.433594 187.597656 655.238281 182.878906 650.667969 179.183594 C 646.457031 175.773438 639.195312 175.097656 633.882812 177.625 M 562.929688 200.421875 C 558.855469 202.277344 557.703125 203.53125 556.867188 207.027344 C 554.9375 215.089844 565.109375 219.890625 574.488281 215.351562 C 579.238281 213.050781 582.636719 207.664062 582.636719 202.4375 L 582.636719 198.792969 L 574.535156 198.8125 C 568.601562 198.824219 565.496094 199.257812 562.929688 200.421875 " fill-opacity="1" fill-rule="evenodd"/></g></svg>