<svg xmlns="http://www.w3.org/2000/svg" xmlns:xlink="http://www.w3.org/1999/xlink" width="500" zoomAndPan="magnify" viewBox="0 0 375 374.999991" height="500" preserveAspectRatio="xMidYMid meet" version="1.0"><defs><clipPath id="cb815b314d"><path d="M 101 114.234375 L 254 114.234375 L 254 234 L 101 234 Z M 101 114.234375 " clip-rule="nonzero"/></clipPath><clipPath id="38280f2af9"><path d="M 97.726562 95.691406 L 272.535156 95.691406 L 272.535156 274.859375 L 97.726562 274.859375 Z M 97.726562 95.691406 " clip-rule="nonzero"/></clipPath></defs><g clip-path="url(#cb815b314d)"><path fill="#23b659" d="M 110.78125 121.085938 C 96.085938 129.808594 103.09375 195.765625 106.984375 216.898438 C 108.796875 226.746094 119.886719 230.722656 138.691406 231.84375 C 150.792969 232.5625 217.199219 237.214844 238.941406 227.238281 C 244.289062 224.785156 248.066406 218.859375 249.0625 214.667969 C 255.589844 187.210938 252.644531 167.355469 251.753906 136.71875 C 251.445312 126.238281 243.847656 117.523438 218.273438 116.847656 C 200.921875 116.386719 183.777344 114.96875 159.78125 114.605469 C 135.96875 114.242188 118.96875 116.226562 110.78125 121.085938 Z M 110.78125 121.085938 " fill-opacity="1" fill-rule="evenodd"/></g><g clip-path="url(#38280f2af9)"><path fill="#000000" d="M 109.871094 97.402344 C 105.320312 99.492188 100.011719 105.367188 98.722656 109.742188 C 98.015625 112.132812 97.808594 127.550781 98.019531 161.738281 C 98.316406 209.3125 98.363281 210.453125 100.292969 215.558594 C 105.242188 228.691406 108.785156 232.011719 140.09375 252.871094 C 170.289062 272.984375 172.234375 274.101562 177.03125 274.101562 C 181.210938 274.101562 185.09375 272.109375 201.683594 261.453125 C 234.808594 240.183594 246.71875 230.382812 251.546875 220.417969 C 256.421875 210.351562 256.523438 209.09375 256.585938 157.683594 C 256.65625 105.964844 256.726562 106.785156 251.582031 101.6875 C 245.710938 95.875 250.132812 96.21875 178.535156 95.980469 C 117.019531 95.78125 113.246094 95.855469 109.871094 97.402344 M 611.480469 177.757812 L 611.480469 224.164062 L 626.816406 224.164062 L 626.507812 220.246094 L 626.191406 216.332031 L 629.636719 219.441406 C 634.503906 223.835938 638.578125 225.34375 645.808594 225.417969 C 657.953125 225.546875 667.679688 219.519531 673.109375 208.496094 C 675.492188 203.65625 676.003906 201.449219 676.371094 194.453125 C 676.886719 184.515625 675.304688 177.886719 670.753906 170.949219 C 661.828125 157.324219 641.402344 153.824219 629.640625 163.898438 L 626.191406 166.851562 L 626.191406 131.867188 L 611.480469 131.351562 Z M 689.507812 132.265625 C 686.671875 133.425781 684.570312 136.289062 684.003906 139.757812 C 683.546875 142.574219 683.871094 143.347656 686.628906 146.109375 C 690.789062 150.269531 695.128906 150.460938 698.941406 146.648438 C 703.460938 142.125 702.277344 135.054688 696.597656 132.683594 C 693.222656 131.269531 692.09375 131.207031 689.507812 132.265625 M 296.695312 178.65625 L 296.695312 224.164062 L 311.832031 224.164062 L 312.300781 157.726562 L 334.59375 208.164062 L 345.855469 207.664062 L 357.378906 182.695312 L 368.90625 157.726562 L 368.914062 190.496094 L 368.925781 223.273438 L 384.085938 223.273438 L 384.085938 133.203125 L 374.050781 133.207031 L 364.019531 133.207031 L 352.515625 160.414062 C 346.1875 175.382812 340.851562 187.46875 340.65625 187.277344 C 340.464844 187.082031 335.164062 174.9375 328.882812 160.289062 L 317.457031 133.652344 L 307.074219 133.398438 L 296.695312 133.148438 Z M 463.003906 178.683594 L 463.003906 224.164062 L 478.675781 224.164062 L 478.421875 204.542969 L 478.160156 184.921875 L 498.449219 184.925781 L 518.738281 184.925781 L 518.738281 224.164062 L 533.898438 224.164062 L 533.898438 133.203125 L 518.738281 133.203125 L 518.738281 171.550781 L 498.449219 171.550781 L 478.160156 171.554688 L 478.679688 133.203125 L 463.003906 133.203125 Z M 132.136719 144.125 C 132.941406 152.832031 134.910156 160.492188 137.460938 164.839844 C 142.851562 174.023438 154.515625 183.789062 164.605469 187.558594 L 169.910156 189.542969 L 170.953125 195.484375 C 171.523438 198.75 172.347656 207.609375 172.78125 215.171875 C 173.601562 229.515625 173.882812 230.363281 177.847656 230.390625 C 181.304688 230.414062 182.292969 227.28125 182.933594 214.351562 C 183.847656 195.796875 183.84375 195.8125 189.6875 193.769531 C 195.964844 191.566406 205.632812 184.976562 210.335938 179.6875 C 216.578125 172.671875 220.863281 160.960938 220.890625 150.816406 C 220.894531 148.636719 220.566406 148.367188 217.964844 148.367188 C 213.460938 148.367188 204.84375 150.871094 200.414062 153.46875 C 188.789062 160.28125 180.605469 174.679688 178.492188 192.058594 C 177.789062 197.832031 177.78125 197.84375 177.125 194.289062 C 176.761719 192.328125 175.785156 186.304688 174.953125 180.914062 C 173.1875 169.496094 170.542969 161.878906 165.945312 154.949219 C 159.515625 145.265625 145.972656 137.707031 134.976562 137.671875 L 131.539062 137.664062 Z M 719.0625 147.601562 C 718.746094 150.617188 718.488281 154.429688 718.488281 156.074219 L 718.488281 159.066406 L 707.789062 159.066406 L 707.789062 172.441406 L 717.445312 172.441406 L 717.753906 191.390625 C 718.039062 208.898438 718.210938 210.621094 720.03125 214.042969 C 724.363281 222.183594 733.109375 226.136719 743.238281 224.527344 L 748.359375 223.71875 L 748.804688 216.792969 C 749.1875 210.878906 749.0625 209.949219 747.914062 210.429688 C 745.050781 211.617188 739.171875 211.832031 737.269531 210.816406 C 733.527344 208.8125 732.757812 204.921875 732.757812 188.074219 L 732.757812 172.441406 L 747.914062 172.441406 L 747.914062 159.957031 L 732.757812 159.957031 L 732.757812 142.121094 L 719.632812 142.121094 Z M 561.835938 159.820312 C 559.304688 160.699219 555.75 162.546875 553.941406 163.925781 C 550.628906 166.449219 545.488281 173.609375 545.488281 175.695312 C 545.488281 176.3125 546.996094 177.058594 548.832031 177.351562 C 550.675781 177.644531 553.691406 178.226562 555.546875 178.640625 C 558.640625 179.335938 559.011719 179.203125 560.132812 177.03125 C 561.976562 173.46875 564.25 171.773438 568.8125 170.550781 C 572.382812 169.597656 573.496094 169.664062 577.085938 171.03125 C 582.027344 172.921875 583.984375 175.597656 584.742188 181.464844 L 585.296875 185.816406 L 574.027344 185.816406 C 560.496094 185.816406 554.960938 187.1875 549.839844 191.820312 C 545.679688 195.578125 543.972656 198.546875 543.203125 203.375 C 541.375 214.816406 551.988281 225.269531 565.554688 225.382812 C 572.082031 225.4375 576.484375 224.011719 581.429688 220.238281 L 585.1875 217.371094 L 584.863281 220.765625 L 584.539062 224.164062 L 600.015625 224.164062 L 599.730469 199.863281 C 599.40625 172.535156 598.960938 170.378906 592.527344 164.730469 C 585.4375 158.5 571.917969 156.34375 561.835938 159.820312 M 771.101562 159.5 C 765.9375 161.15625 760.84375 165.40625 758.496094 170.003906 C 755.699219 175.484375 756.410156 183.683594 760.070312 188.210938 C 763.535156 192.488281 769.121094 195.257812 777.933594 197.070312 C 786.296875 198.789062 789.574219 200.339844 790.871094 203.183594 C 793.308594 208.535156 788.324219 213.453125 780.464844 213.453125 C 774.464844 213.453125 769.605469 210.3125 767.097656 204.804688 C 767.011719 204.617188 757.394531 206.957031 755.253906 207.683594 C 753.519531 208.273438 756.257812 214.121094 760.125 218.085938 C 765.1875 223.28125 771.027344 225.429688 780.019531 225.402344 C 785.90625 225.386719 788.59375 224.9375 792.054688 223.386719 C 803.890625 218.097656 808.957031 206.5625 803.875 196.484375 C 801.410156 191.597656 794.59375 187.226562 787.257812 185.832031 C 776.683594 183.824219 773.523438 182.714844 771.804688 180.402344 C 766.640625 173.460938 778.5625 166.4375 786.886719 171.511719 C 788.457031 172.472656 790.339844 174.410156 791.070312 175.824219 L 792.402344 178.398438 L 798.46875 176.414062 C 805.382812 174.152344 805.621094 173.464844 801.5625 167.546875 C 797.835938 162.117188 790.410156 158.671875 781.867188 158.414062 C 777.855469 158.292969 773.484375 158.734375 771.101562 159.5 M 440.390625 161.070312 C 427.523438 197.042969 424.617188 204.484375 424.019531 203.03125 C 423.65625 202.148438 419.972656 192.195312 415.835938 180.914062 L 408.320312 160.402344 L 400.546875 160.144531 C 393.4375 159.90625 392.8125 160.019531 393.230469 161.480469 C 393.480469 162.359375 398.96875 176.320312 405.421875 192.503906 C 417.023438 221.59375 417.140625 221.976562 416.101562 225.746094 C 415.523438 227.84375 413.574219 231.222656 411.769531 233.257812 C 408.710938 236.699219 408.109375 236.984375 402.972656 237.351562 L 397.460938 237.75 L 397.460938 251.171875 L 403.671875 250.652344 C 414.015625 249.785156 421.03125 245.726562 425.570312 237.984375 C 427.296875 235.046875 454.617188 165.765625 456.078125 160.625 C 456.476562 159.226562 455.730469 159.066406 448.820312 159.066406 C 441.632812 159.066406 441.0625 159.203125 440.390625 161.070312 M 685.496094 192.058594 L 685.496094 224.164062 L 700.65625 224.164062 L 700.65625 159.957031 L 685.496094 159.957031 Z M 636.894531 173.1875 C 629.851562 176.53125 626.417969 182.695312 626.371094 192.058594 C 626.328125 200.835938 629.660156 207.242188 636.003906 210.578125 C 639.59375 212.472656 648.542969 212.425781 652.230469 210.496094 C 658.4375 207.25 661.804688 199.777344 661.269531 190.417969 C 660.867188 183.339844 658.632812 178.535156 653.980469 174.773438 C 649.695312 171.300781 642.300781 170.613281 636.894531 173.1875 M 564.664062 196.394531 C 560.515625 198.285156 559.34375 199.558594 558.492188 203.117188 C 556.527344 211.328125 566.882812 216.214844 576.429688 211.59375 C 581.265625 209.25 584.726562 203.765625 584.726562 198.445312 L 584.726562 194.734375 L 576.476562 194.757812 C 570.4375 194.769531 567.277344 195.210938 564.664062 196.394531 " fill-opacity="1" fill-rule="evenodd"/></g></svg>